<svg width="26" height="26" viewBox="0 0 26 26" fill="none" xmlns="http://www.w3.org/2000/svg">
<path fill-rule="evenodd" clip-rule="evenodd" d="M25.5 13C25.5 13.5651 25.4625 14.1214 25.3899 14.6667H0.610143C0.537498 14.1214 0.5 13.5651 0.5 13C0.5 12.1438 0.586077 11.3078 0.75005 10.5H25.25C25.4139 11.3078 25.5 12.1438 25.5 13ZM23.5757 6.33331C21.3614 2.82804 17.4526 0.5 13 0.5C8.54741 0.5 4.63856 2.82804 2.42428 6.33331H23.5757ZM13 25.5C8.20326 25.5 4.03757 22.7982 1.94174 18.8333H24.0583C21.9624 22.7982 17.7967 25.5 13 25.5Z" fill="#004242"/>
</svg>
