<svg width="16" height="20" viewBox="0 0 16 20" fill="none" xmlns="http://www.w3.org/2000/svg">
<path fill-rule="evenodd" clip-rule="evenodd" d="M6.49518 15.3743C9.6082 16.068 12.941 14.7097 14.6201 11.8014C16.6912 8.21424 15.4621 3.62731 11.875 1.55624C8.28776 -0.514824 3.70083 0.71424 1.62976 4.30143C-0.049355 7.20975 0.44075 10.7752 2.59807 13.1243L0.176394 17.3187L4.07351 19.5687L6.49518 15.3743ZM11.3725 9.92643C10.337 11.72 8.04355 12.3346 6.24995 11.299C4.45635 10.2635 3.84182 7.97003 4.87736 6.17643C5.91289 4.38284 8.20635 3.76831 9.99995 4.80384C11.7935 5.83937 12.4081 8.13284 11.3725 9.92643Z" fill="#004242"/>
</svg>
